<?xml version="1.0" encoding="UTF-8" standalone="no"?>
<svg
   height="1024"
   width="768"
   version="1.1"
   id="svg826"
   sodipodi:docname="PR.svg"
   inkscape:version="1.1.1 (c3084ef, 2021-09-22)"
   xmlns:inkscape="http://www.inkscape.org/namespaces/inkscape"
   xmlns:sodipodi="http://sodipodi.sourceforge.net/DTD/sodipodi-0.dtd"
   xmlns="http://www.w3.org/2000/svg"
   xmlns:svg="http://www.w3.org/2000/svg">
  <defs
     id="defs830" />
  <sodipodi:namedview
     id="namedview828"
     pagecolor="#505050"
     bordercolor="#ffffff"
     borderopacity="1"
     inkscape:pageshadow="0"
     inkscape:pageopacity="0"
     inkscape:pagecheckerboard="1"
     showgrid="false"
     inkscape:zoom="0.63085938"
     inkscape:cx="343.18266"
     inkscape:cy="486.63777"
     inkscape:window-width="1293"
     inkscape:window-height="847"
     inkscape:window-x="0"
     inkscape:window-y="25"
     inkscape:window-maximized="0"
     inkscape:current-layer="svg826" />
  <path
     d="M704 722s0-306 0-402-96-192-192-192c-64 0-64 0-64 0v-128l-192 192 192 192v-128s32 0 64 0 64 32 64 64 0 402 0 402c-38 22-64 63-64 110 0 71 57 128 128 128s128-57 128-128c0-47-26-88-64-110z m-64 174c-35 0-64-29-64-64s29-64 64-64 64 29 64 64-29 64-64 64z m-512-832c-71 0-128 57-128 128 0 47 26 88 64 110v419c-38 22-64 63-64 110 0 71 57 128 128 128s128-57 128-128c0-47-26-88-64-110v-419c38-22 64-63 64-110 0-71-57-128-128-128z m0 832c-35 0-64-29-64-64s29-64 64-64 64 29 64 64-29 64-64 64z m0-640c-35 0-64-29-64-64s29-64 64-64 64 29 64 64-29 64-64 64z"
     id="path824"
     style="fill:#1b7f36;fill-opacity:1" />
</svg>
