<?xml version="1.0" encoding="UTF-8" standalone="no"?>
<svg
   height="1024"
   width="768"
   version="1.1"
   id="svg826"
   sodipodi:docname="pr-merged.svg"
   inkscape:version="1.1.1 (c3084ef, 2021-09-22)"
   xmlns:inkscape="http://www.inkscape.org/namespaces/inkscape"
   xmlns:sodipodi="http://sodipodi.sourceforge.net/DTD/sodipodi-0.dtd"
   xmlns="http://www.w3.org/2000/svg"
   xmlns:svg="http://www.w3.org/2000/svg">
  <defs
     id="defs830" />
  <sodipodi:namedview
     id="namedview828"
     pagecolor="#505050"
     bordercolor="#ffffff"
     borderopacity="1"
     inkscape:pageshadow="0"
     inkscape:pageopacity="0"
     inkscape:pagecheckerboard="1"
     showgrid="false"
     inkscape:zoom="0.63085938"
     inkscape:cx="384.39628"
     inkscape:cy="531.02167"
     inkscape:window-width="1293"
     inkscape:window-height="847"
     inkscape:window-x="0"
     inkscape:window-y="25"
     inkscape:window-maximized="0"
     inkscape:current-layer="svg826" />
  <path
     d="M640 448c-47.625 0-88.625 26.312-110.625 64.906C523.625 512.5 518 512 512 512c-131.062 0-255.438-99.844-300.812-223.438C238.469 265.09400000000005 256 230.71900000000005 256 192c0-70.656-57.344-128-128-128S0 121.34400000000005 0 192c0 47.219 25.844 88.062 64 110.281V721.75C25.844 743.938 0 784.75 0 832c0 70.625 57.344 128 128 128s128-57.375 128-128c0-47.25-25.844-88.062-64-110.25V491.469C276.156 580.5 392.375 640 512 640c6.375 0 11.625-0.438 17.375-0.625C551.5 677.812 592.5 704 640 704c70.625 0 128-57.375 128-128C768 505.344 710.625 448 640 448zM128 896c-35.312 0-64-28.625-64-64 0-35.312 28.688-64 64-64 35.406 0 64 28.688 64 64C192 867.375 163.406 896 128 896zM128 256c-35.312 0-64-28.594-64-64s28.688-64 64-64c35.406 0 64 28.594 64 64S163.406 256 128 256zM640 640c-35.312 0-64-28.625-64-64 0-35.406 28.688-64 64-64 35.375 0 64 28.594 64 64C704 611.375 675.375 640 640 640z"
     id="path824"
     style="fill:#8250df;fill-opacity:1" />
</svg>
