<?xml version="1.0" encoding="UTF-8" standalone="no"?>
<!DOCTYPE svg PUBLIC "-//W3C//DTD SVG 1.1//EN" "http://www.w3.org/Graphics/SVG/1.1/DTD/svg11.dtd">
<svg width="100%" height="100%" viewBox="0 0 125 125" version="1.1" xmlns="http://www.w3.org/2000/svg" xmlns:xlink="http://www.w3.org/1999/xlink" xml:space="preserve" xmlns:serif="http://www.serif.com/" style="fill-rule:evenodd;clip-rule:evenodd;stroke-linejoin:round;stroke-miterlimit:2;">
    <g transform="matrix(0,-0.556292,-0.556292,0,62.5,0)">
        <path d="M-112.351,-112.351C-174.401,-112.351 -224.702,-62.05 -224.702,0C-224.702,62.049 -174.401,112.351 -112.351,112.351C-50.301,112.351 0,62.049 0,0C0,-62.05 -50.301,-112.351 -112.351,-112.351" style="fill:rgb(255,255,0);fill-rule:nonzero;"/>
    </g>
    <g transform="matrix(0,-0.556292,-0.556292,0,25.1157,54.4972)">
        <path d="M-14.386,-14.386C-22.331,-14.386 -28.772,-7.945 -28.772,0C-28.772,7.945 -22.331,14.386 -14.386,14.386C-6.441,14.386 0,7.945 0,0C0,-7.945 -6.441,-14.386 -14.386,-14.386" style="fill-rule:nonzero;"/>
    </g>
    <g transform="matrix(0,-0.556292,-0.556292,0,62.5002,54.4972)">
        <path d="M-14.386,-14.386C-22.331,-14.386 -28.772,-7.945 -28.772,0C-28.772,7.945 -22.331,14.386 -14.386,14.386C-6.441,14.386 0,7.945 0,0C0,-7.945 -6.441,-14.386 -14.386,-14.386" style="fill-rule:nonzero;"/>
    </g>
    <g transform="matrix(0,-0.556292,-0.556292,0,99.8846,54.4972)">
        <path d="M-14.386,-14.386C-22.331,-14.386 -28.772,-7.945 -28.772,0C-28.772,7.945 -22.331,14.386 -14.386,14.386C-6.441,14.386 0,7.945 0,0C0,-7.945 -6.441,-14.386 -14.386,-14.386" style="fill-rule:nonzero;"/>
    </g>
    <g transform="matrix(-0.556292,0,0,0.556292,48.9554,35.0799)">
        <path d="M17.274,98.582L29.205,98.582L-0,0L-11.931,0L17.274,98.582Z" style="fill-rule:nonzero;"/>
    </g>
    <g transform="matrix(-0.556292,0,0,0.556292,86.3518,35.0799)">
        <path d="M17.274,98.582L29.205,98.582L-0,0L-11.931,0L17.274,98.582Z" style="fill-rule:nonzero;"/>
    </g>
</svg>