<?xml version="1.0" encoding="UTF-8"?><svg id="uuid-2171676f-2161-47f9-a5a3-280767af58b8" xmlns="http://www.w3.org/2000/svg" viewBox="0 0 85 85"><defs><style>.uuid-5501d033-85d4-4652-adeb-91f17ba77627{fill:#ffff3c;}</style></defs><path class="uuid-5501d033-85d4-4652-adeb-91f17ba77627" d="M85,42.5c0,23.47-19.03,42.5-42.5,42.5S0,65.97,0,42.5,19.03,0,42.5,0s42.5,19.03,42.5,42.5"/><path d="M22.44,42.41c0,3.01-2.44,5.44-5.44,5.44s-5.44-2.44-5.44-5.44,2.44-5.44,5.44-5.44,5.44,2.44,5.44,5.44"/><path d="M47.86,42.41c0,3.01-2.44,5.44-5.44,5.44s-5.44-2.44-5.44-5.44,2.44-5.44,5.44-5.44,5.44,2.44,5.44,5.44"/><path d="M73.29,42.41c0,3.01-2.44,5.44-5.44,5.44s-5.44-2.44-5.44-5.44,2.44-5.44,5.44-5.44,5.44,2.44,5.44,5.44"/><polygon points="26.68 60.86 22.16 60.86 33.21 23.57 37.72 23.57 26.68 60.86"/><polygon points="52.11 60.86 47.59 60.86 58.64 23.57 63.15 23.57 52.11 60.86"/></svg>