<svg width="40" height="40" viewBox="0 0 40 40" fill="none" xmlns="http://www.w3.org/2000/svg">
   <g clip-path="url(#clip0_138_807)">
   <path d="M20 40C31.0457 40 40 31.0457 40 20C40 8.9543 31.0457 0 20 0C8.9543 0 0 8.9543 0 20C0 31.0457 8.9543 40 20 40Z" fill="#FFFF00"/>
   <path d="M8.00043 22.515C9.41428 22.515 10.5604 21.3688 10.5604 19.955C10.5604 18.5411 9.41428 17.395 8.00043 17.395C6.58658 17.395 5.44043 18.5411 5.44043 19.955C5.44043 21.3688 6.58658 22.515 8.00043 22.515Z" fill="black"/>
   <path d="M19.9653 22.515C21.3791 22.515 22.5253 21.3688 22.5253 19.955C22.5253 18.5411 21.3791 17.395 19.9653 17.395C18.5514 17.395 17.4053 18.5411 17.4053 19.955C17.4053 21.3688 18.5514 22.515 19.9653 22.515Z" fill="black"/>
   <path d="M31.9252 22.515C33.3391 22.515 34.4852 21.3688 34.4852 19.955C34.4852 18.5411 33.3391 17.395 31.9252 17.395C30.5114 17.395 29.3652 18.5411 29.3652 19.955C29.3652 21.3688 30.5114 22.515 31.9252 22.515Z" fill="black"/>
   <path d="M12.5547 28.64H10.4297L15.6297 11.095H17.7547L12.5547 28.64Z" fill="black"/>
   <path d="M24.5195 28.64H22.3945L27.5945 11.095H29.7195L24.5195 28.64Z" fill="black"/>
   </g>
   <defs>
   <clipPath id="clip0_138_807">
   <rect width="40" height="40" fill="white"/>
   </clipPath>
   </defs>
   </svg>
   